HIERARCHY
ROOT Hips
{
	OFFSET 0.00000 0.00000 0.00000
	CHANNELS 6 Xposition Yposition Zposition Zrotation Yrotation Xrotation 
	JOINT LHipJoint
	{
		OFFSET 0 0 0
		CHANNELS 3 Zrotation Yrotation Xrotation
		JOINT LeftHip
		{
			OFFSET 1.33213 -1.58186 0.78596
			CHANNELS 3 Zrotation Yrotation Xrotation
			JOINT LeftKnee
			{
				OFFSET 2.29717 -6.31144 0.00000
				CHANNELS 3 Zrotation Yrotation Xrotation
				JOINT LeftAnkle
				{
					OFFSET 2.38430 -6.55082 0.00000
					CHANNELS 3 Zrotation Yrotation Xrotation
					JOINT LeftToe
					{
						OFFSET 0.11863 -0.32594 1.77568
						CHANNELS 3 Zrotation Yrotation Xrotation
						End Site
						{
							OFFSET 0.00000 -0.00000 0.91633
						}
					}
				}
			}
		}
	}
	JOINT RHipJoint
	{
		OFFSET 0 0 0
		CHANNELS 3 Zrotation Yrotation Xrotation
		JOINT RightHip
		{
			OFFSET -1.41575 -1.58186 0.78596
			CHANNELS 3 Zrotation Yrotation Xrotation
			JOINT RightKnee
			{
				OFFSET -2.42012 -6.64922 0.00000
				CHANNELS 3 Zrotation Yrotation Xrotation
				JOINT RightAnkle
				{
					OFFSET -2.47254 -6.79327 0.00000
					CHANNELS 3 Zrotation Yrotation Xrotation
					JOINT RightToe
					{
						OFFSET -0.15219 -0.41813 1.93430
						CHANNELS 3 Zrotation Yrotation Xrotation
						End Site
						{
							OFFSET -0.00000 -0.00000 0.99984
						}
					}
				}
			}
		}
	}
	JOINT lowerback
	{
		OFFSET 0 0 0
		CHANNELS 3 Zrotation Yrotation Xrotation
		JOINT Chest
		{
			OFFSET -0.04717 2.09389 -0.14516
			CHANNELS 3 Zrotation Yrotation Xrotation
			JOINT Chest2
			{
				OFFSET 0.02825 2.09433 -0.11325
				CHANNELS 3 Zrotation Yrotation Xrotation
				JOINT lowerneck
				{
					OFFSET 0 0 0
					CHANNELS 3 Zrotation Yrotation Xrotation
					JOINT Neck
					{
						OFFSET -0.01210 1.39029 0.12448
						CHANNELS 3 Zrotation Yrotation Xrotation
						JOINT Head
						{
							OFFSET 0.09492 1.38365 0.14559
							CHANNELS 3 Zrotation Yrotation Xrotation
							End Site
							{
								OFFSET 0.03402 1.40343 0.03708
							}
						}
					}
				}
				JOINT LeftCollar
				{
					OFFSET 0 0 0
					CHANNELS 3 Zrotation Yrotation Xrotation
					JOINT LeftShoulder
					{
						OFFSET 2.83352 1.10671 -0.20481
CHANNELS 3 Zrotation Xrotation Yrotation
						JOINT LeftElbow
						{
OFFSET 0 -4.771950 -0.000000
CHANNELS 3 Zrotation Xrotation Yrotation
							JOINT LeftWrist
							{
OFFSET 0 -2.984440 0.000000
CHANNELS 3 Zrotation Xrotation Yrotation
								JOINT lhand
								{
									OFFSET 0 0 0
CHANNELS 3 Zrotation Xrotation Yrotation
									JOINT LFingers
									{
OFFSET 0 -0.992280 0.000000
CHANNELS 3 Zrotation Xrotation Yrotation
										End Site
										{
OFFSET 0 -0.800010 0.000000
										}
									}
								}
								JOINT LThumb
								{
OFFSET 0 0.000000 0.000000
CHANNELS 3 Zrotation Xrotation Yrotation
									End Site
									{
OFFSET 0 -0.812220 0.812220
									}
								}
							}
						}
					}
				}
				JOINT RightCollar
				{
					OFFSET 0 0 0
					CHANNELS 3 Zrotation Yrotation Xrotation
					JOINT RightShoulder
					{
						OFFSET -3.23760 1.11106 0.06723
CHANNELS 3 Zrotation Xrotation Yrotation
						JOINT RightElbow
						{
OFFSET 0 -4.620520 0.000000
CHANNELS 3 Zrotation Xrotation Yrotation
							JOINT RightWrist
							{
OFFSET 0 -2.953320 0.000000
CHANNELS 3 Zrotation Xrotation Yrotation
								JOINT rhand
								{
									OFFSET 0 0 0
CHANNELS 3 Zrotation Xrotation Yrotation
									JOINT RFingers
									{
OFFSET 0 -0.990960 0.000000
CHANNELS 3 Zrotation Xrotation Yrotation
										End Site
										{
OFFSET 0 -0.798930 0.000000
										}
									}
								}
								JOINT RThumb
								{
OFFSET 0 0.000000 0.000000
CHANNELS 3 Zrotation Xrotation Yrotation
									End Site
									{
OFFSET 0 -0.811130 0.811130
									}
								}
							}
						}
					}
				}
			}
		}
	}
}
MOTION
Frames: 10
Frame Time: 0.008333333333333333
0.495772 15.872499 29.432779 -183.398563 -4.045693 -149.698843 0.000000 0.000000 0.000000 -12.967960 -22.421639 -45.505105 3.323537 11.195092 32.947969 -0.295966 -13.475576 -5.166131 0.166545 2.606917 7.187468 0.000000 0.000000 0.000000 12.041568 16.117642 -46.899788 -5.153528 -13.549892 41.472383 -2.720571 9.170441 -29.731613 -0.366385 3.885302 -10.754535 -4.032082 -2.322038 0.895985 0.732323 -3.181697 2.821141 2.955486 -1.730848 2.662678 -5.058272 -2.843877 -1.171881 9.058280 -3.006203 -7.495229 3.921396 -1.412263 -1.975532 0.000000 0.000000 0.000000 18.908636 16.609777 -33.961977 20.272361 -30.967557 5.671556 11.944828 15.471564 -8.856290 0.000000 0.000000 0.000000 -7.125000 0.000000 0.000000 -12.889913 38.719737 -2.034071 0.000000 0.000000 0.000000 -5.193152 18.837858 -2.115066 -13.390719 -21.856613 -2.597241 -0.351600 33.285053 5.922007 0.000000 0.000000 0.000000 7.125000 0.000000 0.000000 21.651635 35.147612 5.574652
0.496398 15.790052 29.445937 -183.642846 -3.901116 -148.445097 0.000000 0.000000 0.000000 -12.333192 -23.115437 -48.040740 3.694805 11.736640 34.814755 -0.273622 -13.886868 -6.007569 0.138314 2.382523 6.564740 0.000000 0.000000 0.000000 11.090158 16.595568 -49.320557 -5.584231 -14.008270 43.280357 -2.885110 9.306693 -30.649358 -0.402515 4.073260 -11.282882 -4.031346 -2.182303 1.777241 0.644150 -3.049156 2.976563 2.902285 -1.667909 2.311100 -5.095637 -2.934964 -0.861390 9.427010 -2.906110 -9.278275 3.987052 -1.352568 -2.529899 0.000000 0.000000 0.000000 19.621658 18.105792 -34.688444 20.721683 -31.501387 5.904127 12.103252 14.624416 -8.790804 0.000000 0.000000 0.000000 -7.125000 0.000000 0.000000 -12.742742 38.666053 -2.026564 0.000000 0.000000 0.000000 -4.957748 20.555719 -2.406249 -13.685793 -22.283081 -2.708240 -0.407167 32.474935 5.946165 0.000000 0.000000 0.000000 7.125000 0.000000 0.000000 21.614285 35.173458 5.549132
0.495327 15.698800 29.459771 -183.872932 -3.769210 -147.334184 0.000000 0.000000 0.000000 -11.740246 -23.695922 -50.521346 4.115965 12.309212 36.840596 -0.281583 -14.560247 -6.597055 0.214144 2.953004 8.149925 0.000000 0.000000 0.000000 10.182819 16.942602 -51.663550 -6.062028 -14.485376 45.224935 -3.063178 9.558932 -31.616004 -0.411133 4.116006 -11.403359 -4.162612 -2.053474 2.771193 0.704865 -2.943107 3.151856 3.078309 -1.624562 1.936296 -5.221424 -3.021709 -0.377613 9.731587 -2.782799 -11.272135 3.870417 -1.292682 -3.031705 0.000000 0.000000 0.000000 19.909949 19.596627 -35.290203 21.086431 -31.928634 6.095801 12.384886 14.056896 -8.559173 0.000000 0.000000 0.000000 -7.125000 0.000000 0.000000 -12.457217 38.455755 -2.045447 0.000000 0.000000 0.000000 -4.957735 22.311651 -2.277099 -14.031410 -22.779303 -2.840393 -0.378726 31.419952 6.087119 0.000000 0.000000 0.000000 7.125000 0.000000 0.000000 21.673380 35.302731 5.492971
0.494918 15.595922 29.474944 -184.002728 -3.741805 -146.372474 0.000000 0.000000 0.000000 -11.078166 -24.156495 -52.907492 4.571592 12.884302 38.937134 -0.306122 -15.352855 -7.060554 0.368336 3.898048 10.790046 0.000000 0.000000 0.000000 9.443997 17.236407 -53.861095 -6.565814 -14.954992 47.212123 -3.204436 9.766555 -32.363678 -0.417738 4.148690 -11.495228 -4.131663 -1.997713 3.981248 0.749123 -2.950779 3.372844 3.154018 -1.636773 1.488469 -5.184209 -3.050779 0.014506 9.778179 -2.571829 -13.203174 3.912585 -1.157794 -3.686939 0.000000 0.000000 0.000000 20.054559 21.111556 -35.561737 21.483205 -32.388044 6.306821 12.718763 13.727188 -8.483236 0.000000 0.000000 0.000000 -7.125000 0.000000 0.000000 -12.160599 38.403898 -2.010821 0.000000 0.000000 0.000000 -4.815965 23.798791 -2.169418 -14.327630 -23.201131 -2.955989 -0.394236 30.720075 6.181066 0.000000 0.000000 0.000000 7.125000 0.000000 0.000000 21.685895 35.390924 5.446463
0.499552 15.472956 29.486271 -184.189793 -3.640292 -145.466324 0.000000 0.000000 0.000000 -10.401127 -24.669208 -55.346889 5.109362 13.501703 41.284457 -0.285956 -16.009557 -7.973826 0.454574 4.321691 11.984088 0.000000 0.000000 0.000000 8.595254 17.572352 -56.070008 -7.134818 -15.441276 49.376930 -3.393474 10.140514 -33.334615 -0.401691 4.069145 -11.271179 -4.327652 -1.923917 5.073091 0.832015 -2.945287 3.666828 3.389909 -1.655565 1.197832 -5.263583 -3.096859 0.684337 9.824173 -2.347865 -15.458167 3.985867 -1.001963 -4.493636 0.000000 0.000000 0.000000 19.787004 22.462286 -35.314176 21.921435 -32.887542 6.543398 12.940667 13.544156 -8.518247 0.000000 0.000000 0.000000 -7.125000 0.000000 0.000000 -11.980398 38.454697 -1.964827 0.000000 0.000000 0.000000 -4.627184 24.927274 -2.173966 -14.515124 -23.466197 -3.030300 -0.711904 30.302439 6.249456 0.000000 0.000000 0.000000 7.125000 0.000000 0.000000 21.453437 35.474073 5.334052
0.503970 15.365605 29.492489 -184.370382 -3.378611 -144.583918 0.000000 0.000000 0.000000 -9.740710 -25.123423 -57.754628 5.695268 14.118960 43.731796 -0.240679 -16.636901 -9.094540 0.487496 4.476804 12.422117 0.000000 0.000000 0.000000 7.701324 17.942547 -58.202362 -7.729653 -15.911657 51.574475 -3.614460 10.497563 -34.442334 -0.413922 4.129764 -11.442010 -4.699135 -1.792558 6.057291 0.943328 -2.875613 3.987003 3.746033 -1.650829 1.001021 -5.425055 -3.164813 1.418062 9.884773 -2.146855 -17.736976 4.082749 -0.841528 -5.327747 0.000000 0.000000 0.000000 19.183500 23.596293 -34.869319 22.208276 -33.211258 6.699747 13.270789 13.314354 -8.361717 0.000000 0.000000 0.000000 -7.125000 0.000000 0.000000 -11.671474 38.321080 -1.950996 0.000000 0.000000 0.000000 -4.521293 25.728730 -2.063388 -14.545904 -23.509720 -3.042516 -1.120376 29.861347 6.354903 0.000000 0.000000 0.000000 7.125000 0.000000 0.000000 21.158163 35.597445 5.183650
0.504591 15.229722 29.495240 -184.446907 -3.104050 -143.776556 0.000000 0.000000 0.000000 -9.000604 -25.476147 -60.250943 6.366402 14.763337 46.415007 -0.216733 -17.311965 -9.961015 0.585819 4.889236 13.595037 0.000000 0.000000 0.000000 6.911907 18.290918 -60.371441 -8.398778 -16.397230 53.974662 -3.838537 10.856671 -35.537405 -0.458921 4.342722 -12.043375 -4.771527 -1.659413 7.183365 0.904271 -2.798142 4.220263 3.786128 -1.626659 0.612427 -5.493224 -3.232704 1.950195 10.076189 -1.943391 -19.605980 4.195786 -0.688119 -6.011466 0.000000 0.000000 0.000000 18.740575 24.635480 -34.567555 22.293078 -33.306693 6.746089 13.693550 12.872105 -8.135089 0.000000 0.000000 0.000000 -7.125000 0.000000 0.000000 -11.272141 38.122548 -1.937583 0.000000 0.000000 0.000000 -4.147344 26.307031 -2.104738 -14.420119 -23.331917 -2.992635 -1.327414 29.611265 6.438950 0.000000 0.000000 0.000000 7.125000 0.000000 0.000000 21.016226 35.688590 5.094381
0.507486 15.070290 29.491643 -184.467407 -2.840783 -143.002104 0.000000 0.000000 0.000000 -8.237200 -25.684932 -62.854881 7.118687 15.419111 49.301039 -0.251113 -18.024971 -10.220251 0.889596 5.939775 16.631147 0.000000 0.000000 0.000000 6.191013 18.618910 -62.625029 -9.140078 -16.888485 56.560766 -4.066618 11.273957 -36.622869 -0.499016 4.528393 -12.568282 -4.822763 -1.531090 8.283119 0.848323 -2.728813 4.423252 3.795954 -1.604359 0.207646 -5.488543 -3.297779 2.243396 10.253854 -1.752058 -21.129988 4.282086 -0.539032 -6.556332 0.000000 0.000000 0.000000 18.240063 25.410463 -34.260472 22.148621 -33.144108 6.667129 14.155791 12.343754 -7.869109 0.000000 0.000000 0.000000 -7.125000 0.000000 0.000000 -10.834194 37.885644 -1.923761 0.000000 0.000000 0.000000 -3.727079 26.566123 -2.278682 -14.174232 -22.982704 -2.896144 -1.231903 29.577732 6.490493 0.000000 0.000000 0.000000 7.125000 0.000000 0.000000 21.105289 35.730741 5.095340
0.512000 14.898321 29.477685 -184.524893 -2.572515 -142.230204 0.000000 0.000000 0.000000 -7.588599 -25.769565 -65.522288 7.950937 16.071859 52.367667 -0.292810 -18.784569 -10.441793 1.179506 6.892338 19.397064 0.000000 0.000000 0.000000 5.479435 18.834190 -64.972776 -9.951741 -17.374423 59.315836 -4.393984 12.683139 -38.137509 -0.367270 3.477655 -9.648380 -5.064029 -1.427273 9.213719 0.843035 -2.701456 4.650991 3.959381 -1.611954 -0.058786 -5.417708 -3.357582 2.363058 10.321654 -1.565230 -22.499951 4.315085 -0.382388 -7.033111 0.000000 0.000000 0.000000 17.444537 25.854249 -33.662820 21.862158 -32.820425 6.511154 14.556283 11.913667 -7.572625 0.000000 0.000000 0.000000 -7.125000 0.000000 0.000000 -10.444968 37.612250 -1.924074 0.000000 0.000000 0.000000 -3.416751 26.336523 -2.677828 -13.794898 -22.439360 -2.750245 -0.921064 29.931577 6.448447 0.000000 0.000000 0.000000 7.125000 0.000000 0.000000 21.340261 35.672344 5.192064
0.511013 14.714613 29.450362 -184.633923 -2.276048 -141.500429 0.000000 0.000000 0.000000 -7.139688 -25.758754 -68.161756 8.868728 16.715319 55.624458 -0.249992 -19.563329 -11.527321 1.068698 6.547658 18.390309 0.000000 0.000000 0.000000 4.803165 18.847751 -67.350032 -10.835913 -17.848705 62.241236 -4.918730 15.814801 -40.524618 -0.027512 0.368388 -1.011084 -5.392744 -1.361323 10.011443 0.844074 -2.727070 4.858265 4.177537 -1.647337 -0.261145 -5.354378 -3.395939 2.584282 10.353021 -1.361386 -23.872992 4.339731 -0.215900 -7.540650 0.000000 0.000000 0.000000 16.323901 26.137837 -32.634164 21.579510 -32.498280 6.358560 14.789844 11.720150 -7.265730 0.000000 0.000000 0.000000 -7.125000 0.000000 0.000000 -10.196428 37.315971 -1.952632 0.000000 0.000000 0.000000 -3.172468 25.602599 -3.515796 -13.241555 -21.638767 -2.542645 -0.577502 30.875440 6.273809 0.000000 0.000000 0.000000 7.125000 0.000000 0.000000 21.565850 35.488505 5.357440
